<svg width="28" height="25" viewBox="0 0 28 25" fill="none" xmlns="http://www.w3.org/2000/svg">
<path d="M13.872 0C6.20884 0 0 5.59476 0 12.5C0 19.4052 6.20884 25 13.872 25C21.5352 25 27.744 19.4052 27.744 12.5C27.744 5.59476 21.5352 0 13.872 0ZM17.0659 17.6462L12.1324 14.4153C11.959 14.2994 11.8583 14.1179 11.8583 13.9264V5.44355C11.8583 5.11089 12.1604 4.83871 12.5296 4.83871H15.2145C15.5836 4.83871 15.8857 5.11089 15.8857 5.44355V12.3841L19.4376 14.7127C19.7397 14.9093 19.8012 15.2873 19.583 15.5595L18.0056 17.5151C17.7875 17.7823 17.368 17.8427 17.0659 17.6462Z" fill="black"/>
</svg>
