<svg width="25" height="25" viewBox="0 0 25 25" fill="none" xmlns="http://www.w3.org/2000/svg">
<g clip-path="url(#clip0_135_79)">
<path d="M8.59375 10.5469H16.4062C16.8379 10.5469 17.1875 10.1973 17.1875 9.76565V8.9844C17.1875 8.55276 16.8379 8.20315 16.4062 8.20315H8.59375C8.16211 8.20315 7.8125 8.55276 7.8125 8.9844V9.76565C7.8125 10.1973 8.16211 10.5469 8.59375 10.5469ZM7.8125 14.4532C7.8125 14.8848 8.16211 15.2344 8.59375 15.2344H16.4062C16.8379 15.2344 17.1875 14.8848 17.1875 14.4532V13.6719C17.1875 13.2403 16.8379 12.8907 16.4062 12.8907H8.59375C8.16211 12.8907 7.8125 13.2403 7.8125 13.6719V14.4532ZM12.5 20.3677C11.6982 20.3677 10.8965 20.1206 10.2119 19.626L0 12.2491V22.6563C0 23.9507 1.04932 25 2.34375 25H22.6562C23.9507 25 25 23.9507 25 22.6563V12.2491L14.7881 19.626C14.1035 20.1201 13.3018 20.3677 12.5 20.3677ZM24.1021 7.95657C23.6699 7.6177 23.2603 7.29886 22.6562 6.8428V4.68753C22.6562 3.39309 21.6069 2.34378 20.3125 2.34378H16.5259C16.3774 2.23636 16.2393 2.13577 16.0845 2.02347C15.2637 1.42434 13.6328 -0.0170613 12.5 2.85826e-05C11.3672 -0.0170613 9.73682 1.42434 8.91553 2.02347C8.76074 2.13577 8.62256 2.23636 8.47412 2.34378H4.6875C3.39307 2.34378 2.34375 3.39309 2.34375 4.68753V6.8428C1.73975 7.29837 1.33008 7.6177 0.897949 7.95657C0.618241 8.17577 0.392048 8.45572 0.236481 8.77523C0.0809144 9.09474 4.81351e-05 9.44544 0 9.80081L0 10.3208L4.6875 13.7071V4.68753H20.3125V13.7071L25 10.3208V9.80081C25 9.08108 24.6689 8.40091 24.1021 7.95657Z" fill="black"/>
</g>
<defs>
<clipPath id="clip0_135_79">
<rect width="25" height="25" fill="white"/>
</clipPath>
</defs>
</svg>
