<svg width="37" height="33" viewBox="0 0 37 33" fill="none" xmlns="http://www.w3.org/2000/svg">
<path d="M18.311 18.5625C23.9975 18.5625 28.611 14.4053 28.611 9.28124C28.611 4.15722 23.9975 0 18.311 0C12.6246 0 8.01108 4.15722 8.01108 9.28124C8.01108 14.4053 12.6246 18.5625 18.311 18.5625ZM27.4665 20.625H23.5254C21.9375 21.2824 20.1707 21.6562 18.311 21.6562C16.4513 21.6562 14.6917 21.2824 13.0967 20.625H9.15552C4.09852 20.625 0 24.3181 0 28.875V29.9062C0 31.6142 1.53784 33 3.43332 33H33.1887C35.0842 33 36.6221 31.6142 36.6221 29.9062V28.875C36.6221 24.3181 32.5235 20.625 27.4665 20.625Z" fill="#ECEDEE"/>
</svg>
