<svg width="37" height="26" viewBox="0 0 37 26" fill="none" xmlns="http://www.w3.org/2000/svg">
<path d="M36.6221 10.6787V11.6072C36.6221 12.3765 35.9389 13.0001 35.0961 13.0001H34.5875L32.9272 23.6082C32.7125 24.9806 31.4248 26 29.9061 26H6.71595C5.19722 26 3.9096 24.9806 3.69476 23.6082L2.03456 13.0001H1.52592C0.683167 13.0001 0 12.3765 0 11.6072V10.6787C0 9.90939 0.683167 9.2858 1.52592 9.2858H5.80746L12.5965 0.765011C13.2574 -0.0644287 14.5298 -0.247878 15.4386 0.355398C16.3474 0.958675 16.5483 2.12013 15.8874 2.94963L10.8389 9.2858H25.7831L20.7347 2.94957C20.0738 2.12013 20.2748 0.958617 21.1835 0.35534C22.0921 -0.247936 23.3647 -0.0645448 24.0256 0.764953L30.8146 9.2858H35.0961C35.9389 9.2858 36.6221 9.90939 36.6221 10.6787ZM19.8369 20.8929V14.3929C19.8369 13.6236 19.1538 13.0001 18.311 13.0001C17.4683 13.0001 16.7851 13.6236 16.7851 14.3929V20.8929C16.7851 21.6621 17.4683 22.2857 18.311 22.2857C19.1538 22.2857 19.8369 21.6621 19.8369 20.8929ZM26.9579 20.8929V14.3929C26.9579 13.6236 26.2747 13.0001 25.432 13.0001C24.5892 13.0001 23.9061 13.6236 23.9061 14.3929V20.8929C23.9061 21.6621 24.5892 22.2857 25.432 22.2857C26.2747 22.2857 26.9579 21.6621 26.9579 20.8929ZM12.716 20.8929V14.3929C12.716 13.6236 12.0328 13.0001 11.1901 13.0001C10.3473 13.0001 9.66415 13.6236 9.66415 14.3929V20.8929C9.66415 21.6621 10.3473 22.2857 11.1901 22.2857C12.0328 22.2857 12.716 21.6621 12.716 20.8929Z" fill="black"/>
</svg>
