<svg width="42" height="34" viewBox="0 0 42 34" fill="none" xmlns="http://www.w3.org/2000/svg">
<path d="M38.5087 19.7981L41.9557 6.1315C42.2045 5.14474 41.3722 4.2051 40.2492 4.2051H11.6089L10.9405 1.26087C10.774 0.527017 10.0574 0 9.22605 0H1.75C0.783488 0 0 0.705997 0 1.57691V2.62819C0 3.4991 0.783488 4.2051 1.75 4.2051H6.84562L11.9679 26.7704C10.7424 27.4054 9.91665 28.5961 9.91665 29.9613C9.91665 31.9935 11.7448 33.6408 14 33.6408C16.2551 33.6408 18.0833 31.9935 18.0833 29.9613C18.0833 28.9315 17.6132 28.001 16.8566 27.3332H32.1433C31.3867 28.001 30.9166 28.9315 30.9166 29.9613C30.9166 31.9935 32.7448 33.6408 34.9999 33.6408C37.2551 33.6408 39.0833 31.9935 39.0833 29.9613C39.0833 28.5045 38.1435 27.2456 36.7806 26.6495L37.1829 25.0545C37.4318 24.0677 36.5994 23.1281 35.4764 23.1281H15.9043L15.4271 21.0255H36.8022C37.6193 21.0255 38.3276 20.516 38.5087 19.7981Z" fill="white"/>
</svg>
