<svg width="29" height="21" viewBox="0 0 29 21" fill="none" xmlns="http://www.w3.org/2000/svg">
<path d="M10.1504 10.4531C13.3541 10.4531 15.9506 8.11342 15.9506 5.22656C15.9506 2.3397 13.3541 0 10.1504 0C6.94668 0 4.35017 2.3397 4.35017 5.22656C4.35017 8.11342 6.94668 10.4531 10.1504 10.4531ZM14.2106 11.7598H13.4538C12.4478 12.1762 11.3286 12.4131 10.1504 12.4131C8.97223 12.4131 7.8575 12.1762 6.84699 11.7598H6.09024C2.72792 11.7598 0 14.2179 0 17.2476V18.9463C0 20.0283 0.974258 20.9062 2.17509 20.9062H14.632C14.5232 20.6286 14.4779 20.3346 14.5142 20.0365L14.8223 17.5498L14.8767 17.0966L15.2347 16.774L18.7375 13.6176C17.6273 12.4866 16.0186 11.7598 14.2106 11.7598ZM16.2633 17.6927L15.9552 20.1835C15.9053 20.6 16.295 20.9512 16.7527 20.9022L19.5123 20.6245L25.7612 14.9937L22.5121 12.066L16.2633 17.6927ZM28.684 10.9799L26.9665 9.43231C26.5451 9.05256 25.8563 9.05256 25.4349 9.43231L23.722 10.9758L23.5363 11.1432L26.7898 14.0709L28.684 12.3641C29.1054 11.9803 29.1054 11.3637 28.684 10.9799Z" fill="white"/>
</svg>
