<svg width="25" height="26" viewBox="0 0 25 26" fill="none" xmlns="http://www.w3.org/2000/svg">
<path d="M24.3304 24.1365H23.2144V1.20683C23.2144 0.540307 22.6148 0 21.8751 0H3.12501C2.38533 0 1.78572 0.540307 1.78572 1.20683V24.1365H0.669645C0.299834 24.1365 0 24.4067 0 24.74V25.7457H25.0001V24.74C25.0001 24.4067 24.7002 24.1365 24.3304 24.1365ZM7.14288 3.82162C7.14288 3.48839 7.44271 3.21821 7.81253 3.21821H10.0447C10.4145 3.21821 10.7143 3.48839 10.7143 3.82162V5.833C10.7143 6.16623 10.4145 6.43641 10.0447 6.43641H7.81253C7.44271 6.43641 7.14288 6.16623 7.14288 5.833V3.82162ZM7.14288 8.64893C7.14288 8.3157 7.44271 8.04552 7.81253 8.04552H10.0447C10.4145 8.04552 10.7143 8.3157 10.7143 8.64893V10.6603C10.7143 10.9935 10.4145 11.2637 10.0447 11.2637H7.81253C7.44271 11.2637 7.14288 10.9935 7.14288 10.6603V8.64893ZM10.0447 16.091H7.81253C7.44271 16.091 7.14288 15.8209 7.14288 15.4876V13.4762C7.14288 13.143 7.44271 12.8728 7.81253 12.8728H10.0447C10.4145 12.8728 10.7143 13.143 10.7143 13.4762V15.4876C10.7143 15.8209 10.4145 16.091 10.0447 16.091ZM14.2858 24.1365H10.7143V19.9127C10.7143 19.5794 11.0142 19.3092 11.384 19.3092H13.6161C13.9859 19.3092 14.2858 19.5794 14.2858 19.9127V24.1365ZM17.8572 15.4876C17.8572 15.8209 17.5574 16.091 17.1876 16.091H14.9554C14.5856 16.091 14.2858 15.8209 14.2858 15.4876V13.4762C14.2858 13.143 14.5856 12.8728 14.9554 12.8728H17.1876C17.5574 12.8728 17.8572 13.143 17.8572 13.4762V15.4876ZM17.8572 10.6603C17.8572 10.9935 17.5574 11.2637 17.1876 11.2637H14.9554C14.5856 11.2637 14.2858 10.9935 14.2858 10.6603V8.64893C14.2858 8.3157 14.5856 8.04552 14.9554 8.04552H17.1876C17.5574 8.04552 17.8572 8.3157 17.8572 8.64893V10.6603ZM17.8572 5.833C17.8572 6.16623 17.5574 6.43641 17.1876 6.43641H14.9554C14.5856 6.43641 14.2858 6.16623 14.2858 5.833V3.82162C14.2858 3.48839 14.5856 3.21821 14.9554 3.21821H17.1876C17.5574 3.21821 17.8572 3.48839 17.8572 3.82162V5.833Z" fill="black"/>
</svg>
