<svg width="28" height="24" viewBox="0 0 28 24" fill="none" xmlns="http://www.w3.org/2000/svg">
<path d="M24.5477 0H2.94572C2.16447 0 1.41521 0.270917 0.862782 0.753153C0.310352 1.23539 0 1.88944 0 2.57143L0 21.4286C0 22.1105 0.310352 22.7646 0.862782 23.2468C1.41521 23.7291 2.16447 24 2.94572 24H24.5477C25.3289 24 26.0782 23.7291 26.6306 23.2468C27.1831 22.7646 27.4934 22.1105 27.4934 21.4286V2.57143C27.4934 1.88944 27.1831 1.23539 26.6306 0.753153C26.0782 0.270917 25.3289 0 24.5477 0ZM23.5418 16.4662L22.6213 19.9484C22.5746 20.1254 22.4604 20.2834 22.2976 20.3965C22.1348 20.5097 21.9328 20.5713 21.7247 20.5714C11.9056 20.5714 3.92763 13.6227 3.92763 5.03571C3.93493 4.85574 4.00822 4.68257 4.1367 4.54167C4.26518 4.40078 4.44208 4.2996 4.64135 4.25303L8.63035 3.44946C8.6984 3.4369 8.76764 3.42991 8.83717 3.42857C9.01518 3.43641 9.18754 3.48571 9.33636 3.57134C9.48517 3.65697 9.60502 3.77581 9.68345 3.91553L11.5245 7.66553C11.5696 7.76664 11.5947 7.87369 11.5988 7.98214C11.5838 8.22002 11.4626 8.4433 11.2613 8.6041L8.93597 10.2648C10.3449 12.8716 12.7483 14.9696 15.7345 16.1995L17.6369 14.1696C17.8211 13.9938 18.0769 13.8881 18.3494 13.875C18.4736 13.8785 18.5963 13.9004 18.7121 13.9398L23.0079 15.547C23.1681 15.6153 23.3043 15.7199 23.4024 15.8498C23.5005 15.9798 23.5569 16.1303 23.5658 16.2857C23.5646 16.3464 23.5565 16.4069 23.5418 16.4662Z" fill="black"/>
</svg>
